<?xml version="1.0" standalone="no"?>
<svg viewBox="0 0 75 50" width="75" height="50">
    <path d=" M 61.739 9.316 C 61.739 8.723 60.937 8.243 59.949 8.243 C 58.961 8.243 58.159 8.723 58.159 9.316 C 58.159 9.908 58.961 10.389 59.949 10.389 C 60.937 10.389 61.739 9.908 61.739 9.316 Z  M 20.21 41.037 C 18.603 41.011 17.003 40.703 15.49 40.109 L 12.497 45.374 L 11.396 50 L 7.947 47.994 L 11.347 44.705 L 14.274 39.558 C 12.723 38.76 11.295 37.635 10.084 36.176 C -0.614 29.363 2.091 16.631 16.971 15.477 C 20.749 8.606 27.043 6.485 35.846 9.122 C 40.223 5.448 43.748 6.639 45.406 11.841 C 50.75 11.218 53.992 17.897 52.867 21.771 C 51.729 26.755 49.643 30.351 46.61 32.561 L 41.795 41.318 L 40.76 45.959 L 37.283 44.003 L 40.636 40.665 L 44.377 33.861 C 42.483 34.722 40.305 35.169 37.844 35.202 L 37.295 37.843 L 37.663 42.587 L 33.77 41.758 L 35.997 37.567 L 36.493 35.18 C 35.149 35.12 33.728 34.946 32.228 34.658 C 29.687 38.469 25.747 40.614 21.695 40.982 L 19.73 45.293 L 19.044 50 L 15.431 48.315 L 18.526 44.731 L 20.21 41.037 Z  M 2.563 26.805 C 2.749 29.192 3.614 31.26 5.16 33 C 4.562 34.666 2.803 34.183 1.637 33.337 C 0.446 33.847 -0.582 32.281 0.38 31.216 C -0.054 29.385 0.329 27.646 2.563 26.805 Z  M 48.725 11.131 C 53.303 12.263 54.739 17.178 54.494 20.887 C 57.85 22.615 60.743 21.35 64.658 19.622 C 59.168 18.215 60.428 15.204 63.066 17.33 C 65.337 17.943 67.376 17.919 69.189 17.248 C 79.403 10.012 75.537 0.814 62.4 3.416 C 61.832 -1.647 57.573 -1.012 56.444 4.856 L 53.928 5.703 C 48.011 1.243 44.552 4.415 49.229 9.265 C 49.033 9.587 49.115 9.845 49.481 10.028 C 48.749 10.333 48.496 10.704 48.725 11.131 Z  M 63.066 9.584 C 63.066 8.399 61.461 7.438 59.485 7.438 C 57.508 7.438 55.904 8.399 55.904 9.584 C 55.904 10.769 57.508 11.73 59.485 11.73 C 61.461 11.73 63.066 10.769 63.066 9.584 Z "
          />
</svg>
