<?xml version="1.0" standalone="no"?>
<svg
     viewBox="0 434.469 1900 489.531" width="1900" height="489.531">
    <g id="Group">
        <path d=" M 1900 560 C 1316.667 752.909 559.091 368.061 0 560 L 0 924 L 1900 924 L 1900 560 Z "
              fill="rgb(52,58,64)"/>
        <clipPath id="_clipPath_q4J5nSnPbDwRPGIAPPuubTrfBO3cHWz3">
            <path d=" M 1900 560 C 1316.667 752.909 559.091 368.061 0 560 L 0 924 L 1900 924 L 1900 560 Z "
                  fill="rgb(52,58,64)"/>
        </clipPath>
        <g clip-path="url(#_clipPath_q4J5nSnPbDwRPGIAPPuubTrfBO3cHWz3)">
            <g id="clouds">
                <g id="Group">
                    <path d=" M 1727.266 780.197 C 1692.62 730.17 1637.716 726.798 1598.043 775.321 C 1491.305 737.394 1419.063 885.249 1561.471 928.926 C 1575.646 968.594 1603.254 988.937 1644.368 989.88 C 1695.028 1065.854 1825.064 1054.777 1832.107 938.678 C 1994.603 1011.331 2051.904 732.578 1849.174 768.006 C 1824.582 723.909 1748.487 725.835 1727.266 780.197 Z "
                          fill="rgb(255,255,255)"/>
                    <path d=" M 1471.083 767.173 C 1424.558 725.455 1378.31 726.993 1332.406 771.72 C 1273.962 743.402 1226.094 764.768 1223.284 828.555 C 1122.152 869.104 1180.816 974.227 1266.478 951.317 C 1310.127 1004.172 1360.876 1007.226 1418.795 960.411 C 1475.318 1024.23 1591.859 973.44 1552.924 871.749 C 1626.113 809.652 1544.219 715.947 1471.083 767.173 Z "
                          fill="rgb(255,255,255)"/>
                    <path d=" M 675.371 1009.278 C 644.313 1054.124 595.096 1057.146 559.532 1013.649 C 463.85 1047.648 399.09 915.107 526.747 875.954 C 539.455 840.394 564.203 822.158 601.059 821.313 C 646.472 753.208 763.039 763.137 769.353 867.212 C 915.018 802.084 966.384 1051.965 784.653 1020.206 C 762.607 1059.737 694.394 1058.01 675.371 1009.278 Z "
                          fill="rgb(255,255,255)"/>
                    <path d=" M 418.565 1008.855 C 374.837 1048.066 331.369 1046.62 288.226 1004.582 C 233.295 1031.198 188.304 1011.116 185.664 951.164 C 90.611 913.053 145.749 814.249 226.261 835.782 C 267.285 786.105 314.984 783.235 369.42 827.235 C 422.546 767.253 532.08 814.989 495.486 910.567 C 564.275 968.93 487.304 1057.002 418.565 1008.855 Z "
                          fill="rgb(255,255,255)"/>
                    <path d=" M 45.01 792.375 C -73.679 759.182 -140.174 940.435 16.721 955.04 C 52.691 991.437 92.744 993.818 136.951 962.112 C 189.474 1009.06 251.175 997.829 266.611 933.822 C 388.213 858.567 270.595 685.179 151.096 787.66 C 130.454 737.374 62.172 735.944 45.01 792.375 Z "
                          fill="rgb(255,255,255)"/>
                    <path d=" M 980.115 1003.112 C 856.435 1037.701 787.143 848.827 950.636 833.608 C 988.118 795.68 1029.856 793.199 1075.922 826.238 C 1130.652 777.317 1194.948 789.019 1211.034 855.717 C 1337.748 934.137 1215.184 1114.816 1090.661 1008.026 C 1069.151 1060.426 997.998 1061.916 980.115 1003.112 Z "
                          fill="rgb(255,255,255)"/>
                </g>
            </g>
        </g>
        <g id="Group">
            <g id="Group">
                <rect x="783.39" y="571.459" width="30.855" height="115.175" transform="matrix(1,0,0,1,0,0)"
                      fill="rgb(108,117,125)"/>
                <rect x="805.906" y="574.107" width="5.838" height="110.541" transform="matrix(1,0,0,1,0,0)"
                      fill="rgb(255,255,255)"/>
            </g>
            <g id="Group">
                <rect x="856.512" y="593.764" width="30.855" height="115.175" transform="matrix(1,0,0,1,0,0)"
                      fill="rgb(108,117,125)"/>
                <rect x="879.029" y="596.411" width="5.838" height="110.541" transform="matrix(1,0,0,1,0,0)"
                      fill="rgb(255,255,255)"/>
            </g>
            <g id="Group">
                <path d="M 758.951 636.062 L 767.15 619.904 C 768.068 618.094 770.384 617.126 772.317 617.744 L 911.512 662.241 C 913.445 662.859 914.269 664.83 913.351 666.64 L 905.152 682.799 C 904.234 684.609 901.918 685.577 899.985 684.959 L 760.79 640.462 C 758.857 639.844 758.033 637.872 758.951 636.062 Z"
                      style="stroke:none;fill:#6C757D;stroke-miterlimit:10;"/>
                <rect x="823.813" y="575.559" width="22.032" height="147.171"
                      transform="matrix(0.452,-0.892,0.965,0.308,-169.251,1193.401)" fill="rgb(255,255,255)"/>
            </g>
            <g id="Group">
                <path d="M 758.951 601.335 L 767.15 585.176 C 768.068 583.366 770.384 582.398 772.317 583.017 L 911.512 627.513 C 913.445 628.131 914.269 630.103 913.351 631.913 L 905.152 648.071 C 904.234 649.882 901.918 650.849 899.985 650.231 L 760.79 605.735 C 758.857 605.116 758.033 603.145 758.951 601.335 Z"
                      style="stroke:none;fill:#6C757D;stroke-miterlimit:10;"/>
                <rect x="823.813" y="540.832" width="22.032" height="147.171"
                      transform="matrix(0.452,-0.892,0.965,0.308,-135.744,1169.385)" fill="rgb(255,255,255)"/>
            </g>
        </g>
        <g id="Group">
            <path d=" M 788.921 481.938 L 803.454 472.781 L 802.336 471.009 L 787.804 480.166 L 780.654 482.194 L 784.005 487.513 L 788.921 481.938 Z "
                  fill="rgb(0,0,0)"/>
            <path d=" M 874.594 480.655 L 860.964 470.202 L 859.689 471.864 L 873.319 482.317 L 877.702 488.32 L 881.528 483.332 L 874.594 480.655 Z "
                  fill="rgb(0,0,0)"/>
            <path d=" M 815.519 440.695 C 792.643 434.979 782.305 452.5 794.983 467.936 C 800.312 481.404 817.287 485.699 828.93 476.737 C 844.805 485.592 857.234 482.663 866.23 467.936 C 868.246 460.922 864.771 452.881 859.943 449.496 C 860.024 440.957 855.326 437.433 846.951 440.695 C 835.055 432.392 824.573 432.396 815.519 440.695 Z "
                  fill="rgb(255,255,255)"/>
            <path d=" M 864.144 483.092 L 850.459 472.713 L 849.192 474.383 L 862.878 484.762 L 867.294 490.741 L 871.093 485.732 L 864.144 483.092 Z "
                  fill="rgb(0,0,0)"/>
            <path d=" M 799.643 485.153 L 814.151 475.958 L 813.029 474.189 L 798.521 483.383 L 791.376 485.431 L 794.741 490.741 L 799.643 485.153 Z "
                  fill="rgb(0,0,0)"/>
            <path d=" M 849.212 447.989 C 854.897 453.388 856.011 458.421 852.564 463.077 C 856.742 467.313 862.186 469.133 868.909 468.525 C 861.372 463.7 864.748 459.866 867.652 464.334 C 870.755 466.376 873.824 467.358 876.872 467.268 C 895.756 461.64 894.497 446.079 873.519 443.379 C 875.165 435.591 868.466 434.407 863.88 442.541 L 859.689 442.541 C 853.019 432.977 846.269 435.952 850.888 445.475 C 850.434 445.854 850.43 446.277 850.888 446.732 C 849.641 446.819 849.078 447.242 849.212 447.989 Z "
                  fill="rgb(0,0,0)"/>
            <path d=" M 790.538 450.085 C 789.64 453.716 789.915 457.212 791.376 460.562 C 789.657 462.734 787.257 461.14 785.928 459.305 C 783.891 459.467 783.122 456.632 785.089 455.533 C 785.342 452.604 786.774 450.217 790.538 450.085 Z "
                  fill="rgb(0,0,0)"/>
            <path d=" M 875.196 452.809 C 873.375 454.881 865.003 455.163 862.623 452.809 C 862.623 454.544 865.44 455.952 868.909 455.952 C 872.379 455.952 875.082 454.946 875.196 452.809 Z "
                  fill="rgb(255,255,255)"/>
        </g>
        <g id="Group">
            <path d=" M 638.454 611.822 L 647.035 596.902 L 645.215 595.855 L 636.633 610.776 L 631.25 615.923 L 636.711 619.064 L 638.454 611.822 Z "
                  fill="rgb(0,0,0)"/>
            <path d=" M 684.842 605.473 L 693.209 590.431 L 691.374 589.411 L 683.007 604.452 L 677.698 609.676 L 683.203 612.739 L 684.842 605.473 Z "
                  fill="rgb(0,0,0)"/>
            <path d=" M 645.537 565.025 C 621.978 566.83 617.695 586.761 634.634 597.425 C 643.963 608.543 661.461 607.255 669.696 595.049 C 687.591 598.444 698.482 591.725 702.374 574.876 C 702.071 567.569 696.222 561.024 690.561 559.333 C 687.935 551.189 682.354 549.325 675.423 555.077 C 661.485 550.948 651.52 554.269 645.537 565.025 Z "
                  fill="rgb(255,255,255)"/>
            <path d=" M 677.717 600.034 L 681.261 583.191 L 679.206 582.759 L 675.662 599.602 L 672.136 606.163 L 678.301 607.46 L 677.717 600.034 Z "
                  fill="rgb(0,0,0)"/>
            <path d=" M 649.906 611.695 L 657.114 596.065 L 655.208 595.186 L 647.999 610.816 L 643.1 616.426 L 648.82 619.064 L 649.906 611.695 Z "
                  fill="rgb(0,0,0)"/>
            <path d=" M 679.347 561.357 C 686.462 564.691 689.114 569.124 687.31 574.641 C 692.623 577.346 698.375 577.354 704.575 574.649 C 695.882 572.446 697.878 567.733 702.053 571.062 C 705.65 572.021 708.879 571.984 711.748 570.933 C 727.921 559.606 721.8 545.208 701 549.281 C 700.1 541.356 693.356 542.35 691.57 551.535 L 687.585 552.861 C 678.217 545.879 672.74 550.844 680.146 558.436 C 679.834 558.94 679.964 559.344 680.543 559.632 C 679.385 560.109 678.984 560.689 679.347 561.357 Z "
                  fill="rgb(0,0,0)"/>
            <path d=" M 624.224 581.919 C 624.52 585.655 625.888 588.893 628.337 591.616 C 627.39 594.225 624.604 593.469 622.759 592.145 C 620.874 592.943 619.246 590.491 620.769 588.824 C 620.082 585.958 620.687 583.236 624.224 581.919 Z "
                  fill="rgb(0,0,0)"/>
            <path d=" M 700.371 559.398 C 700.371 557.544 697.831 556.038 694.702 556.038 C 691.572 556.038 689.032 557.544 689.032 559.398 C 689.032 561.252 691.572 562.758 694.702 562.758 C 697.831 562.758 700.371 561.252 700.371 559.398 Z "
                  fill="rgb(235,235,235)"/>
            <path d=" M 698.271 558.978 C 698.271 558.051 697.001 557.298 695.437 557.298 C 693.872 557.298 692.602 558.051 692.602 558.978 C 692.602 559.905 693.872 560.658 695.437 560.658 C 697.001 560.658 698.271 559.905 698.271 558.978 Z "
                  fill="rgb(0,0,0)"/>
        </g>
        <g id="Group">
            <path d=" M 1424.384 641.12 L 1424.384 624.17 L 1426.452 624.17 L 1426.452 641.12 L 1428.52 648.158 L 1422.316 648.158 L 1424.384 641.12 Z "
                  fill="rgb(0,0,0)"/>
            <path d=" M 1371.205 642.775 L 1371.205 625.824 L 1373.273 625.824 L 1373.273 642.775 L 1375.341 649.812 L 1369.137 649.812 L 1371.205 642.775 Z "
                  fill="rgb(0,0,0)"/>
            <path d=" M 1413.794 595.051 C 1436.369 589.411 1446.57 606.701 1434.059 621.934 C 1428.801 635.225 1412.049 639.463 1400.559 630.619 C 1384.893 639.358 1372.628 636.467 1363.75 621.934 C 1361.761 615.012 1365.19 607.077 1369.954 603.736 C 1369.874 595.31 1374.51 591.833 1382.775 595.051 C 1394.515 586.858 1404.858 586.862 1413.794 595.051 Z "
                  fill="rgb(255,255,255)"/>
            <path d=" M 1380.544 643.602 L 1380.544 626.651 L 1382.612 626.651 L 1382.612 643.602 L 1384.68 650.639 L 1378.477 650.639 L 1380.544 643.602 Z "
                  fill="rgb(0,0,0)"/>
            <path d=" M 1413.218 644.015 L 1413.218 627.065 L 1415.286 627.065 L 1415.286 644.015 L 1417.353 651.053 L 1411.15 651.053 L 1413.218 644.015 Z "
                  fill="rgb(0,0,0)"/>
            <path d=" M 1380.544 602.25 C 1374.934 607.577 1373.835 612.545 1377.236 617.139 C 1373.113 621.319 1367.74 623.115 1361.106 622.515 C 1368.544 617.753 1365.213 613.97 1362.347 618.38 C 1359.285 620.394 1356.256 621.364 1353.248 621.275 C 1334.613 615.721 1335.855 600.364 1356.557 597.7 C 1354.933 590.015 1361.543 588.847 1366.069 596.873 L 1370.205 596.873 C 1376.787 587.435 1383.449 590.371 1378.89 599.768 C 1379.338 600.142 1379.342 600.56 1378.89 601.009 C 1380.121 601.095 1380.676 601.512 1380.544 602.25 Z "
                  fill="rgb(0,0,0)"/>
            <path d=" M 1438.446 604.318 C 1439.332 607.901 1439.061 611.351 1437.619 614.657 C 1439.316 616.8 1441.683 615.228 1442.996 613.417 C 1445.006 613.576 1445.764 610.778 1443.823 609.694 C 1443.574 606.803 1442.161 604.448 1438.446 604.318 Z "
                  fill="rgb(0,0,0)"/>
            <path d=" M 1354.788 606.061 C 1354.788 604.235 1357.29 602.752 1360.371 602.752 C 1363.453 602.752 1365.955 604.235 1365.955 606.061 C 1365.955 607.887 1363.453 609.37 1360.371 609.37 C 1357.29 609.37 1354.788 607.887 1354.788 606.061 Z "
                  fill="rgb(235,235,235)"/>
            <path d=" M 1356.236 605.553 C 1356.236 604.64 1357.487 603.899 1359.027 603.899 C 1360.568 603.899 1361.819 604.64 1361.819 605.553 C 1361.819 606.466 1360.568 607.208 1359.027 607.208 C 1357.487 607.208 1356.236 606.466 1356.236 605.553 Z "
                  fill="rgb(0,0,0)"/>
        </g>
        <g id="Group">
            <path d=" M 1560.081 649.351 L 1560.081 632.401 L 1562.149 632.401 L 1562.149 649.351 L 1564.217 656.388 L 1558.013 656.388 L 1560.081 649.351 Z "
                  fill="rgb(0,0,0)"/>
            <path d=" M 1506.901 651.005 L 1506.901 634.055 L 1508.969 634.055 L 1508.969 651.005 L 1511.037 658.043 L 1504.833 658.043 L 1506.901 651.005 Z "
                  fill="rgb(0,0,0)"/>
            <path d=" M 1549.49 603.282 C 1572.065 597.641 1582.267 614.932 1569.756 630.165 C 1564.497 643.455 1547.746 647.694 1536.256 638.85 C 1520.59 647.589 1508.324 644.698 1499.447 630.165 C 1497.457 623.243 1500.887 615.308 1505.65 611.967 C 1505.571 603.541 1510.207 600.063 1518.471 603.282 C 1530.211 595.089 1540.555 595.093 1549.49 603.282 Z "
                  fill="rgb(255,255,255)"/>
            <path d=" M 1516.241 651.833 L 1516.241 634.882 L 1518.309 634.882 L 1518.309 651.833 L 1520.377 658.87 L 1514.173 658.87 L 1516.241 651.833 Z "
                  fill="rgb(0,0,0)"/>
            <path d=" M 1548.914 652.246 L 1548.914 635.296 L 1550.982 635.296 L 1550.982 652.246 L 1553.05 659.284 L 1546.846 659.284 L 1548.914 652.246 Z "
                  fill="rgb(0,0,0)"/>
            <path d=" M 1516.241 610.481 C 1510.63 615.808 1509.531 620.775 1512.932 625.37 C 1508.809 629.55 1503.437 631.346 1496.803 630.746 C 1504.24 625.984 1500.909 622.201 1498.043 626.61 C 1494.981 628.625 1491.952 629.594 1488.944 629.505 C 1470.309 623.952 1471.551 608.595 1492.253 605.931 C 1490.629 598.246 1497.24 597.077 1501.766 605.104 L 1505.901 605.104 C 1512.483 595.666 1519.145 598.602 1514.587 607.999 C 1515.034 608.373 1515.038 608.791 1514.587 609.24 C 1515.817 609.325 1516.373 609.743 1516.241 610.481 Z "
                  fill="rgb(0,0,0)"/>
            <path d=" M 1574.143 612.549 C 1575.029 616.132 1574.757 619.582 1573.316 622.888 C 1575.012 625.031 1577.38 623.459 1578.692 621.647 C 1580.702 621.807 1581.461 619.009 1579.519 617.925 C 1579.27 615.034 1577.857 612.679 1574.143 612.549 Z "
                  fill="rgb(0,0,0)"/>
            <path d=" M 1490.485 614.292 C 1490.485 612.466 1492.986 610.983 1496.068 610.983 C 1499.15 610.983 1501.651 612.466 1501.651 614.292 C 1501.651 616.118 1499.15 617.6 1496.068 617.6 C 1492.986 617.6 1490.485 616.118 1490.485 614.292 Z "
                  fill="rgb(235,235,235)"/>
            <path d=" M 1491.932 613.784 C 1491.932 612.871 1493.183 612.13 1494.724 612.13 C 1496.265 612.13 1497.516 612.871 1497.516 613.784 C 1497.516 614.697 1496.265 615.439 1494.724 615.439 C 1493.183 615.439 1491.932 614.697 1491.932 613.784 Z "
                  fill="rgb(0,0,0)"/>
        </g>
        <g id="Group">
            <path d=" M 1486.251 697.219 L 1486.251 680.268 L 1488.319 680.268 L 1488.319 697.219 L 1490.387 704.256 L 1484.184 704.256 L 1486.251 697.219 Z "
                  fill="rgb(0,0,0)"/>
            <path d=" M 1433.072 698.873 L 1433.072 681.923 L 1435.14 681.923 L 1435.14 698.873 L 1437.208 705.911 L 1431.004 705.911 L 1433.072 698.873 Z "
                  fill="rgb(0,0,0)"/>
            <path d=" M 1475.661 651.15 C 1498.236 645.509 1508.437 662.8 1495.926 678.033 C 1490.668 691.323 1473.916 695.562 1462.426 686.718 C 1446.76 695.457 1434.495 692.566 1425.617 678.033 C 1423.628 671.11 1427.057 663.175 1431.821 659.835 C 1431.741 651.409 1436.377 647.931 1444.642 651.15 C 1456.382 642.956 1466.725 642.961 1475.661 651.15 Z "
                  fill="rgb(255,255,255)"/>
            <path d=" M 1442.412 699.7 L 1442.412 682.75 L 1444.479 682.75 L 1444.479 699.7 L 1446.547 706.738 L 1440.344 706.738 L 1442.412 699.7 Z "
                  fill="rgb(0,0,0)"/>
            <path d=" M 1475.085 700.114 L 1475.085 683.164 L 1477.153 683.164 L 1477.153 700.114 L 1479.221 707.151 L 1473.017 707.151 L 1475.085 700.114 Z "
                  fill="rgb(0,0,0)"/>
            <path d=" M 1442.412 658.348 C 1436.801 663.676 1435.702 668.643 1439.103 673.237 C 1434.98 677.417 1429.608 679.214 1422.973 678.614 C 1430.411 673.852 1427.08 670.069 1424.214 674.478 C 1421.152 676.493 1418.123 677.462 1415.115 677.373 C 1396.48 671.819 1397.722 656.463 1418.424 653.799 C 1416.8 646.113 1423.41 644.945 1427.936 652.972 L 1432.072 652.972 C 1438.654 643.534 1445.316 646.47 1440.757 655.867 C 1441.205 656.241 1441.209 656.659 1440.757 657.108 C 1441.988 657.193 1442.543 657.611 1442.412 658.348 Z "
                  fill="rgb(0,0,0)"/>
            <path d=" M 1500.313 660.416 C 1501.199 663.999 1500.928 667.45 1499.486 670.756 C 1501.183 672.899 1503.55 671.326 1504.863 669.515 C 1506.873 669.675 1507.631 666.877 1505.69 665.793 C 1505.441 662.902 1504.028 660.547 1500.313 660.416 Z "
                  fill="rgb(0,0,0)"/>
            <path d=" M 1416.655 662.16 C 1416.655 660.334 1419.157 658.851 1422.239 658.851 C 1425.32 658.851 1427.822 660.334 1427.822 662.16 C 1427.822 663.986 1425.32 665.468 1422.239 665.468 C 1419.157 665.468 1416.655 663.986 1416.655 662.16 Z "
                  fill="rgb(235,235,235)"/>
            <path d=" M 1418.103 661.652 C 1418.103 660.739 1419.354 659.998 1420.894 659.998 C 1422.435 659.998 1423.686 660.739 1423.686 661.652 C 1423.686 662.565 1422.435 663.306 1420.894 663.306 C 1419.354 663.306 1418.103 662.565 1418.103 661.652 Z "
                  fill="rgb(0,0,0)"/>
        </g>
        <g id="Group">
            <path d=" M 509.254 660.185 L 509.254 642.686 L 507.119 642.686 L 507.119 660.185 L 504.984 667.451 L 511.389 667.451 L 509.254 660.185 Z "
                  fill="rgb(0,0,0)"/>
            <path d=" M 564.157 661.893 L 564.157 644.393 L 562.022 644.393 L 562.022 661.893 L 559.887 669.158 L 566.292 669.158 L 564.157 661.893 Z "
                  fill="rgb(0,0,0)"/>
            <path d=" M 520.188 612.623 C 496.881 606.8 486.35 624.651 499.266 640.377 C 504.695 654.099 521.989 658.474 533.851 649.344 C 550.025 658.366 562.688 655.381 571.853 640.377 C 573.907 633.231 570.366 625.039 565.448 621.59 C 565.53 612.891 560.744 609.301 552.212 612.623 C 540.092 604.165 529.413 604.169 520.188 612.623 Z "
                  fill="rgb(255,255,255)"/>
            <path d=" M 554.514 662.747 L 554.514 645.247 L 552.379 645.247 L 552.379 662.747 L 550.245 670.012 L 556.649 670.012 L 554.514 662.747 Z "
                  fill="rgb(0,0,0)"/>
            <path d=" M 520.783 663.174 L 520.783 645.674 L 518.648 645.674 L 518.648 663.174 L 516.513 670.439 L 522.918 670.439 L 520.783 663.174 Z "
                  fill="rgb(0,0,0)"/>
            <path d=" M 554.514 620.055 C 560.307 625.556 561.441 630.684 557.93 635.427 C 562.187 639.742 567.733 641.597 574.583 640.978 C 566.904 636.061 570.343 632.156 573.302 636.708 C 576.463 638.788 579.59 639.789 582.695 639.697 C 601.934 633.963 600.652 618.109 579.279 615.359 C 580.956 607.424 574.131 606.218 569.459 614.505 L 565.189 614.505 C 558.394 604.761 551.516 607.792 556.222 617.494 C 555.76 617.88 555.756 618.311 556.222 618.775 C 554.952 618.863 554.378 619.294 554.514 620.055 Z "
                  fill="rgb(0,0,0)"/>
            <path d=" M 494.737 622.19 C 493.822 625.89 494.103 629.452 495.591 632.865 C 493.839 635.077 491.395 633.454 490.04 631.584 C 487.965 631.749 487.182 628.86 489.186 627.741 C 489.443 624.757 490.902 622.325 494.737 622.19 Z "
                  fill="rgb(0,0,0)"/>
            <path d=" M 581.105 623.99 C 581.105 622.105 578.522 620.574 575.341 620.574 C 572.16 620.574 569.577 622.105 569.577 623.99 C 569.577 625.875 572.16 627.406 575.341 627.406 C 578.522 627.406 581.105 625.875 581.105 623.99 Z "
                  fill="rgb(235,235,235)"/>
            <path d=" M 579.611 623.466 C 579.611 622.523 578.319 621.758 576.729 621.758 C 575.138 621.758 573.846 622.523 573.846 623.466 C 573.846 624.409 575.138 625.174 576.729 625.174 C 578.319 625.174 579.611 624.409 579.611 623.466 Z "
                  fill="rgb(0,0,0)"/>
        </g>
        <g id="Group">
            <path d=" M 171.364 658.734 L 171.364 641.235 L 173.499 641.235 L 173.499 658.734 L 175.634 665.999 L 169.229 665.999 L 171.364 658.734 Z "
                  fill="rgb(0,0,0)"/>
            <path d=" M 116.462 660.442 L 116.462 642.942 L 118.597 642.942 L 118.597 660.442 L 120.732 667.707 L 114.327 667.707 L 116.462 660.442 Z "
                  fill="rgb(0,0,0)"/>
            <path d=" M 160.431 611.172 C 183.737 605.349 194.269 623.2 181.353 638.926 C 175.924 652.647 158.63 657.023 146.767 647.893 C 130.594 656.915 117.931 653.93 108.766 638.926 C 106.712 631.78 110.252 623.588 115.171 620.139 C 115.088 611.44 119.874 607.85 128.407 611.172 C 140.527 602.714 151.206 602.718 160.431 611.172 Z "
                  fill="rgb(255,255,255)"/>
            <path d=" M 126.104 661.296 L 126.104 643.796 L 128.239 643.796 L 128.239 661.296 L 130.374 668.561 L 123.969 668.561 L 126.104 661.296 Z "
                  fill="rgb(0,0,0)"/>
            <path d=" M 159.836 661.723 L 159.836 644.223 L 161.971 644.223 L 161.971 661.723 L 164.106 668.988 L 157.701 668.988 L 159.836 661.723 Z "
                  fill="rgb(0,0,0)"/>
            <path d=" M 126.104 618.604 C 120.312 624.105 119.177 629.233 122.688 633.976 C 118.432 638.291 112.885 640.146 106.036 639.527 C 113.715 634.61 110.276 630.705 107.317 635.257 C 104.156 637.337 101.029 638.337 97.923 638.246 C 78.684 632.512 79.967 616.658 101.339 613.908 C 99.663 605.973 106.487 604.767 111.16 613.054 L 115.43 613.054 C 122.225 603.31 129.103 606.341 124.396 616.043 C 124.858 616.429 124.863 616.86 124.396 617.323 C 125.667 617.412 126.24 617.843 126.104 618.604 Z "
                  fill="rgb(0,0,0)"/>
            <path d=" M 185.882 620.739 C 186.796 624.439 186.516 628.001 185.028 631.414 C 186.779 633.626 189.224 632.003 190.579 630.133 C 192.654 630.297 193.437 627.409 191.433 626.29 C 191.175 623.306 189.717 620.874 185.882 620.739 Z "
                  fill="rgb(0,0,0)"/>
            <path d=" M 99.513 622.539 C 99.513 620.654 102.096 619.123 105.278 619.123 C 108.459 619.123 111.042 620.654 111.042 622.539 C 111.042 624.424 108.459 625.955 105.278 625.955 C 102.096 625.955 99.513 624.424 99.513 622.539 Z "
                  fill="rgb(235,235,235)"/>
            <path d=" M 101.008 622.015 C 101.008 621.072 102.299 620.307 103.89 620.307 C 105.481 620.307 106.772 621.072 106.772 622.015 C 106.772 622.958 105.481 623.723 103.89 623.723 C 102.299 623.723 101.008 622.958 101.008 622.015 Z "
                  fill="rgb(0,0,0)"/>
        </g>
        <g id="Group">
            <path d=" M 966.788 544.498 L 960.21 525.09 L 957.842 525.892 L 964.42 545.3 L 964.783 554.16 L 971.886 551.753 L 966.788 544.498 Z "
                  fill="rgb(0,0,0)"/>
            <path d=" M 1008.357 556.292 L 1000.03 537.568 L 997.746 538.584 L 1006.073 557.308 L 1007.245 566.098 L 1014.098 563.05 L 1008.357 556.292 Z "
                  fill="rgb(0,0,0)"/>
            <path d=" M 971.471 495.219 C 947.368 480.714 929.46 497.094 938.535 519.129 C 939.914 536.354 957.781 547.178 974.192 541.018 C 989.211 556.661 1004.413 557.657 1019.817 543.996 C 1024.565 536.697 1023.406 526.311 1019.081 520.764 C 1022.153 511.051 1018.024 505.392 1007.331 506.189 C 996.657 492.566 984.698 488.912 971.471 495.219 Z "
                  fill="rgb(255,255,255)"/>
            <path d=" M 995.767 555.59 L 986.014 537.568 L 983.815 538.758 L 993.568 556.78 L 995.419 565.452 L 1002.015 561.883 L 995.767 555.59 Z "
                  fill="rgb(0,0,0)"/>
            <path d=" M 957.605 551.931 L 951.53 532.36 L 949.143 533.101 L 955.217 552.672 L 955.352 561.539 L 962.515 559.316 L 957.605 551.931 Z "
                  fill="rgb(0,0,0)"/>
            <path d=" M 1007.363 515.3 C 1011.965 523.444 1011.479 529.575 1005.922 533.683 C 1009.21 539.974 1014.786 543.95 1022.668 545.604 C 1015.753 537.468 1020.942 534.273 1022.696 540.383 C 1025.523 543.796 1028.682 545.987 1032.191 546.948 C 1055.699 547.119 1059.694 528.926 1036.703 518.525 C 1041.299 510.214 1034.07 506.526 1025.999 514.204 L 1021.218 512.742 C 1016.947 499.503 1008.207 500.541 1010.153 513.017 C 1009.504 513.291 1009.351 513.772 1009.715 514.451 C 1008.262 514.115 1007.472 514.401 1007.363 515.3 Z "
                  fill="rgb(0,0,0)"/>
            <path d=" M 939.694 497.212 C 937.403 501.041 936.497 505.127 936.994 509.458 C 934.274 511.335 932.093 508.68 931.217 506.122 C 928.837 505.595 928.949 502.093 931.577 501.526 C 932.888 498.273 935.354 496.049 939.694 497.212 Z "
                  fill="rgb(0,0,0)"/>
            <path d=" M 1030.2 529.305 C 1031.275 527.377 1029.506 524.339 1026.251 522.526 C 1022.997 520.712 1019.482 520.805 1018.408 522.734 C 1017.333 524.662 1019.103 527.7 1022.357 529.514 C 1025.611 531.327 1029.126 531.234 1030.2 529.305 Z "
                  fill="rgb(235,235,235)"/>
            <path d=" M 1028.26 527.652 C 1028.797 526.687 1027.913 525.168 1026.285 524.262 C 1024.658 523.355 1022.901 523.402 1022.364 524.366 C 1021.826 525.33 1022.711 526.849 1024.338 527.756 C 1025.965 528.663 1027.723 528.616 1028.26 527.652 Z "
                  fill="rgb(0,0,0)"/>
        </g>
        <g id="Group">
            <path d=" M 1072.435 668.705 L 1059.771 652.594 L 1057.805 654.139 L 1070.47 670.25 L 1073.762 678.483 L 1079.658 673.848 L 1072.435 668.705 Z "
                  fill="rgb(0,0,0)"/>
            <path d=" M 1103.805 670.583 L 1114.865 653.332 L 1112.76 651.983 L 1101.7 669.234 L 1095.004 675.047 L 1101.318 679.095 L 1103.805 670.583 Z "
                  fill="rgb(0,0,0)"/>
            <path d=" M 1069.488 610.222 C 1042.195 603.403 1029.863 624.306 1044.988 642.722 C 1051.345 658.79 1071.597 663.914 1085.488 653.222 C 1104.427 663.787 1119.255 660.292 1129.988 642.722 C 1132.393 634.354 1128.247 624.761 1122.488 620.722 C 1122.584 610.535 1116.979 606.331 1106.988 610.222 C 1092.795 600.317 1080.29 600.322 1069.488 610.222 Z "
                  fill="rgb(255,255,255)"/>
            <path d=" M 1095.298 668.011 L 1106.988 651.181 L 1104.934 649.754 L 1093.245 666.585 L 1086.338 672.147 L 1092.498 676.425 L 1095.298 668.011 Z "
                  fill="rgb(0,0,0)"/>
            <path d=" M 1083.348 667.645 L 1070.699 651.523 L 1068.732 653.067 L 1081.381 669.189 L 1084.666 677.425 L 1090.567 672.796 L 1083.348 667.645 Z "
                  fill="rgb(0,0,0)"/>
            <path d=" M 1109.684 618.925 C 1116.467 625.366 1117.796 631.371 1113.684 636.925 C 1118.669 641.979 1125.164 644.15 1133.184 643.425 C 1124.192 637.668 1128.219 633.095 1131.684 638.425 C 1135.386 640.861 1139.048 642.033 1142.684 641.925 C 1165.213 635.211 1163.712 616.646 1138.684 613.425 C 1140.647 604.134 1132.656 602.722 1127.184 612.425 L 1122.184 612.425 C 1114.227 601.015 1106.173 604.564 1111.684 615.925 C 1111.143 616.378 1111.138 616.883 1111.684 617.425 C 1110.197 617.529 1109.525 618.034 1109.684 618.925 Z "
                  fill="rgb(0,0,0)"/>
            <path d=" M 1039.684 621.425 C 1038.613 625.757 1038.942 629.929 1040.684 633.925 C 1038.633 636.516 1035.771 634.615 1034.184 632.425 C 1031.754 632.618 1030.837 629.236 1033.184 627.925 C 1033.485 624.43 1035.194 621.583 1039.684 621.425 Z "
                  fill="rgb(0,0,0)"/>
            <g id="Group">
                <path d=" M 1137.567 622.849 C 1137.567 620.641 1134.542 618.849 1130.817 618.849 C 1127.091 618.849 1124.067 620.641 1124.067 622.849 C 1124.067 625.057 1127.091 626.849 1130.817 626.849 C 1134.542 626.849 1137.567 625.057 1137.567 622.849 Z "
                      fill="rgb(235,235,235)"/>
                <path d=" M 1135.067 622.349 C 1135.067 621.245 1133.555 620.349 1131.692 620.349 C 1129.829 620.349 1128.317 621.245 1128.317 622.349 C 1128.317 623.453 1129.829 624.349 1131.692 624.349 C 1133.555 624.349 1135.067 623.453 1135.067 622.349 Z "
                      fill="rgb(0,0,0)"/>
            </g>
        </g>
    </g>
</svg>
